<mxfile host="app.diagrams.net" agent="Mozilla/5.0 (Windows NT 10.0; Win64; x64; rv:137.0) Gecko/20100101 Firefox/137.0" version="26.2.13">
  <diagram name="Page-1" id="SwjTgwN1QWsNc82WDKDY">
    <mxGraphModel dx="666" dy="392" grid="1" gridSize="10" guides="1" tooltips="1" connect="1" arrows="1" fold="1" page="1" pageScale="1" pageWidth="850" pageHeight="1100" math="0" shadow="0">
      <root>
        <mxCell id="0" />
        <mxCell id="1" parent="0" />
        <mxCell id="elirXB4yxsz7Gkl_bgDn-37" style="edgeStyle=orthogonalEdgeStyle;rounded=0;orthogonalLoop=1;jettySize=auto;html=1;" edge="1" parent="1" source="elirXB4yxsz7Gkl_bgDn-34" target="elirXB4yxsz7Gkl_bgDn-36">
          <mxGeometry relative="1" as="geometry" />
        </mxCell>
        <mxCell id="elirXB4yxsz7Gkl_bgDn-44" value="Yêu cầu" style="edgeLabel;html=1;align=center;verticalAlign=middle;resizable=0;points=[];" vertex="1" connectable="0" parent="elirXB4yxsz7Gkl_bgDn-37">
          <mxGeometry x="-0.3143" y="-1" relative="1" as="geometry">
            <mxPoint as="offset" />
          </mxGeometry>
        </mxCell>
        <mxCell id="elirXB4yxsz7Gkl_bgDn-34" value="Người dùng" style="rounded=0;whiteSpace=wrap;html=1;" vertex="1" parent="1">
          <mxGeometry x="365" y="80" width="120" height="60" as="geometry" />
        </mxCell>
        <mxCell id="elirXB4yxsz7Gkl_bgDn-42" style="edgeStyle=orthogonalEdgeStyle;rounded=0;orthogonalLoop=1;jettySize=auto;html=1;entryX=1;entryY=0.5;entryDx=0;entryDy=0;" edge="1" parent="1" source="elirXB4yxsz7Gkl_bgDn-36" target="elirXB4yxsz7Gkl_bgDn-39">
          <mxGeometry relative="1" as="geometry">
            <Array as="points">
              <mxPoint x="505" y="270" />
              <mxPoint x="505" y="410" />
            </Array>
          </mxGeometry>
        </mxCell>
        <mxCell id="elirXB4yxsz7Gkl_bgDn-47" value="Kết quả" style="edgeLabel;html=1;align=center;verticalAlign=middle;resizable=0;points=[];" vertex="1" connectable="0" parent="elirXB4yxsz7Gkl_bgDn-42">
          <mxGeometry x="0.073" y="1" relative="1" as="geometry">
            <mxPoint y="-17" as="offset" />
          </mxGeometry>
        </mxCell>
        <mxCell id="elirXB4yxsz7Gkl_bgDn-43" style="edgeStyle=orthogonalEdgeStyle;rounded=0;orthogonalLoop=1;jettySize=auto;html=1;entryX=0;entryY=0.5;entryDx=0;entryDy=0;" edge="1" parent="1" source="elirXB4yxsz7Gkl_bgDn-36" target="elirXB4yxsz7Gkl_bgDn-34">
          <mxGeometry relative="1" as="geometry">
            <Array as="points">
              <mxPoint x="350" y="270" />
              <mxPoint x="350" y="110" />
            </Array>
          </mxGeometry>
        </mxCell>
        <mxCell id="elirXB4yxsz7Gkl_bgDn-45" value="Kết quả" style="edgeLabel;html=1;align=center;verticalAlign=middle;resizable=0;points=[];" vertex="1" connectable="0" parent="elirXB4yxsz7Gkl_bgDn-43">
          <mxGeometry x="0.0662" y="1" relative="1" as="geometry">
            <mxPoint as="offset" />
          </mxGeometry>
        </mxCell>
        <mxCell id="elirXB4yxsz7Gkl_bgDn-36" value="&lt;div&gt;Hệ thống phân phối Game&lt;/div&gt;" style="ellipse;whiteSpace=wrap;html=1;aspect=fixed;" vertex="1" parent="1">
          <mxGeometry x="365" y="210" width="120" height="120" as="geometry" />
        </mxCell>
        <mxCell id="elirXB4yxsz7Gkl_bgDn-40" style="edgeStyle=orthogonalEdgeStyle;rounded=0;orthogonalLoop=1;jettySize=auto;html=1;" edge="1" parent="1" source="elirXB4yxsz7Gkl_bgDn-39" target="elirXB4yxsz7Gkl_bgDn-36">
          <mxGeometry relative="1" as="geometry" />
        </mxCell>
        <mxCell id="elirXB4yxsz7Gkl_bgDn-46" value="Yêu cầu" style="edgeLabel;html=1;align=center;verticalAlign=middle;resizable=0;points=[];" vertex="1" connectable="0" parent="elirXB4yxsz7Gkl_bgDn-40">
          <mxGeometry x="-0.0057" y="1" relative="1" as="geometry">
            <mxPoint as="offset" />
          </mxGeometry>
        </mxCell>
        <mxCell id="elirXB4yxsz7Gkl_bgDn-39" value="&lt;div&gt;Quản trị viên&lt;/div&gt;" style="rounded=0;whiteSpace=wrap;html=1;" vertex="1" parent="1">
          <mxGeometry x="365" y="380" width="120" height="60" as="geometry" />
        </mxCell>
      </root>
    </mxGraphModel>
  </diagram>
</mxfile>
